[center]Format;AVI

File Size:1.1gb

Video
ID                               : 0
Format                           : MPEG-4 Visual
Format profile                   : Advanced Simple@L5
Format settings, BVOP            : Yes
Format settings, QPel            : No
Format settings, GMC             : No warppoints
Format settings, Matrix          : Custom
Codec ID                         : XVID
Codec ID/Hint                    : XviD
Duration                         : 1h 34mn
Bit rate                         : 1 547 Kbps
Width                            : 640 pixels
Height                           : 354 pixels
Display aspect ratio             : 16:9
Frame rate                       : 24.142 fps
Color space                      : YUV
Chroma subsampling               : 4:2:0
Bit depth                        : 8 bits
Scan type                        : Progressive
Bits/(Pixel*Frame)               : 0.283
Stream size                      : 62.6 MiB (6%)
Writing library                  : XviD 1.2.1 (UTC 2008-12-04)

Audio
ID                               : 1
Format                           : MPEG Audio
Codec ID                         : 55
Codec ID/Hint                    : MP3
Duration                         : 1h 34mn
Bit rate                         : 128 Kbps
Channel(s)                       : 2 channels
Sampling rate                    : 44.1 KHz
Stream size                      : 86.2 MiB (8%)
Alignment                        : Aligned on interleaves


Release Notes:Video:OWN

Audio:OWN?Russian 700mb cam rip (i don't know whos rip it was so whoever it was thanks)

Alright here we go with first cam we decided to use our own video instead of russian now our video does have some cropping issues but overall it is better
in quality and since the movie has majority dark scenes we ended up using ours for it usual video filters re size crop rgb etc about 40 mins in i had to cut about 8 seconds of video but ou dont miss anything.

On to audio what a nightmare it's safe to say this is real old school cam audio with your own personal douche as a commentator it was so annoying that i had to take
90% of all non vocal parts from russian audio and mux to our video way to much work done on it so in the beginning during credits i used russian audio and then on occasion through out for a
second or 2 you will hear russian vocals but is only peoples names so you are not missing out on anything all in all audio turned out watchable.

I have included 2 samples one which basically shows worst of cam audio and second that shows the english audio then transitioning to russian audio really can't add
any scenes that are spoilers but you will get the jist of it don't see any lne coming for it soon we will be doing a v2 next week with a better source till then enjoy.


Duration:1:35

Release Date:2011

Language:English

Click To ResizeClick Here to Zoom!



A family looks to prevent evil spirits from trapping their comatose child in a realm called The Further. [/center]